{"glyphs":{"0":{"ha":1047,"x_min":-33,"x_max":1085,"o":"m 718 -14 l 267 -14 q 17 470 -33 -15 q 382 963 64 960 l 752 962 q 1032 489 1085 968 q 718 -14 1010 -7 m 277 316 q 360 239 297 251 l 626 239 q 721 301 694 247 q 767 487 754 339 q 747 675 780 634 q 648 724 715 718 l 443 724 q 317 637 354 717 q 278 472 292 601 q 277 316 264 342 z "},"1":{"ha":392,"x_min":10,"x_max":388,"o":"m 111 948 l 388 948 l 294 -1 l 10 -1 l 111 948 z "},"2":{"ha":1048,"x_min":-8,"x_max":1053,"o":"m 858 414 l 509 246 l 1013 246 l 987 -3 l 163 -3 q -1 132 16 11 q 102 334 -8 254 l 650 588 q 719 660 727 619 q 627 698 711 700 l 76 698 l 101 948 l 758 948 q 1046 725 1023 939 q 858 414 1053 524 z "},"3":{"ha":999,"x_min":10,"x_max":1014,"o":"m 40 243 l 649 243 q 726 311 696 249 q 687 368 741 358 l 312 368 l 343 603 l 680 602 q 744 681 744 603 q 663 718 738 720 l 83 718 l 106 950 l 713 950 q 1003 711 1002 951 q 893 484 983 564 q 977 234 1014 411 q 629 -3 913 24 l 10 -3 l 40 243 z "},"4":{"ha":1016,"x_min":14,"x_max":1015,"o":"m 736 621 l 432 396 l 713 396 l 736 621 m 692 173 l 139 173 q 18 298 14 173 q 111 421 34 376 l 784 928 q 905 958 822 960 q 1015 863 1015 960 l 929 0 l 675 0 l 692 173 z "},"5":{"ha":1054,"x_min":1,"x_max":1043,"o":"m 25 229 l 618 229 q 716 243 685 229 q 754 291 747 256 q 726 345 755 331 q 631 359 698 359 l 151 359 q 50 473 38 359 l 82 801 q 234 948 97 948 l 1042 948 l 1017 696 l 323 696 l 314 608 l 722 608 q 967 534 891 606 q 1032 326 1043 463 q 911 65 1019 136 q 606 -6 803 -6 l 1 -6 l 25 229 z "},"6":{"ha":1050,"x_min":-10,"x_max":1054,"o":"m 739 420 l 259 420 q 363 201 205 225 l 691 201 q 812 279 791 205 q 739 420 838 414 m 698 645 q 974 534 894 650 q 1022 243 1054 418 q 708 -12 959 -8 l 256 -12 q 63 115 137 11 q 14 467 -10 220 q 172 844 39 720 q 650 956 304 968 l 1027 956 l 1004 726 l 445 726 q 323 645 356 722 l 698 645 z "},"7":{"ha":989,"x_min":27,"x_max":1016,"o":"m 646 -1 l 706 591 q 606 705 725 703 l 27 706 l 49 954 l 705 954 q 979 597 1016 939 l 918 -1 l 646 -1 z "},"8":{"ha":1031,"x_min":2,"x_max":1045,"o":"m 656 -10 l 307 -10 q 3 231 24 18 q 139 511 2 437 q 73 714 64 593 q 380 959 127 945 l 780 959 q 1031 711 1037 950 q 923 511 1011 591 q 1005 231 1045 436 q 656 -10 942 18 m 311 218 l 655 218 q 756 291 740 223 q 675 376 773 359 l 313 376 q 242 298 247 354 q 311 218 237 241 m 371 594 l 680 594 q 773 666 757 600 q 707 747 789 732 l 393 747 q 313 679 324 739 q 371 594 301 619 z "},"9":{"ha":1046,"x_min":0,"x_max":1060,"o":"m 313 535 l 791 535 q 688 753 844 729 l 361 753 q 241 676 262 749 q 313 535 216 541 m 354 304 q 80 415 159 299 q 32 704 0 531 q 345 959 94 955 l 794 959 q 986 832 913 936 q 1035 481 1060 728 q 937 134 1010 248 q 700 -5 853 7 l 26 -5 l 50 224 l 606 224 q 745 304 715 231 l 354 304 z "}," ":{"ha":264,"x_min":0,"x_max":0,"o":""},"!":{"ha":1327,"x_min":53,"x_max":1278,"o":"m 1278 422 q 667 422 976 483 q 56 423 358 362 q 374 -36 89 114 q 946 -48 659 -186 q 1278 422 1234 90 m 1275 562 q 664 563 972 624 q 53 564 355 503 q 384 1034 97 896 q 957 1022 671 1173 q 1275 562 1242 872 m 76 586 q 646 584 401 526 q 1246 593 892 642 q 946 1002 1217 853 q 406 1027 675 1151 q 76 586 136 903 z "},"\"":{"ha":161,"x_min":0,"x_max":0,"o":""},"#":{"ha":431,"x_min":0,"x_max":0,"o":""},"$":{"ha":431,"x_min":0,"x_max":0,"o":""},"%":{"ha":431,"x_min":0,"x_max":0,"o":""},"&":{"ha":330,"x_min":0,"x_max":0,"o":""},"'":{"ha":115,"x_min":0,"x_max":0,"o":""},"(":{"ha":228,"x_min":0,"x_max":0,"o":""},")":{"ha":260,"x_min":0,"x_max":0,"o":""},"*":{"ha":334,"x_min":0,"x_max":0,"o":""},"+":{"ha":431,"x_min":0,"x_max":0,"o":""},",":{"ha":313,"x_min":54,"x_max":273,"o":"m 72 75 q 175 183 81 168 q 267 87 273 176 l 252 -73 q 136 -184 239 -180 q 54 -96 54 -172 l 72 75 l 72 75 z "},"-":{"ha":319,"x_min":0,"x_max":0,"o":""},".":{"ha":351,"x_min":43,"x_max":290,"o":"m 43 102 q 161 235 47 224 q 290 112 283 230 q 159 -9 286 -5 q 43 102 56 3 z "},"/":{"ha":242,"x_min":0,"x_max":0,"o":""},":":{"ha":157,"x_min":0,"x_max":0,"o":""},";":{"ha":161,"x_min":0,"x_max":0,"o":""},"<":{"ha":431,"x_min":0,"x_max":0,"o":""},"=":{"ha":431,"x_min":0,"x_max":0,"o":""},">":{"ha":431,"x_min":0,"x_max":0,"o":""},"?":{"ha":385,"x_min":0,"x_max":0,"o":""},"@":{"ha":393,"x_min":0,"x_max":0,"o":""},"A":{"ha":977,"x_min":-24,"x_max":994,"o":"m -24 3 l 41 649 q 393 954 85 941 l 714 953 q 977 651 994 934 l 911 1 l 659 1 l 688 290 l 267 292 l 238 3 l -24 3 m 302 629 l 292 528 l 713 528 l 722 607 q 658 730 742 717 l 403 729 q 302 629 301 726 z "},"B":{"ha":1002,"x_min":-23,"x_max":1023,"o":"m 69 948 l 726 948 q 1003 702 1000 926 q 916 487 998 562 q 998 248 1023 423 q 624 1 959 -3 l -23 0 l 69 948 m 288 229 l 616 229 q 704 287 694 231 q 625 351 713 342 l 300 354 l 288 229 m 321 585 l 648 584 q 736 642 726 587 q 661 709 746 696 l 333 709 l 321 585 z "},"C":{"ha":986,"x_min":-39,"x_max":1013,"o":"m 919 0 l 250 0 q 5 475 -39 17 q 361 949 50 934 l 1013 949 l 990 718 l 414 718 q 320 672 350 717 q 265 319 251 496 q 333 248 273 263 l 943 246 l 919 0 z "},"D":{"ha":993,"x_min":-25,"x_max":1025,"o":"m 70 945 l 716 945 q 978 471 1025 927 q 641 -2 932 16 l -25 -1 l 70 945 m 243 240 l 614 239 q 699 304 673 248 q 745 471 732 357 q 726 663 758 585 q 640 713 705 711 l 290 713 l 243 240 z "},"E":{"ha":998,"x_min":-35,"x_max":1016,"o":"m 922 0 l 253 0 q 10 474 -35 17 q 366 947 54 932 l 1016 947 l 993 717 l 416 716 q 329 680 343 719 l 306 598 l 982 597 l 958 370 l 287 372 l 288 319 q 336 245 290 251 l 946 246 l 922 0 z "},"F":{"ha":1012,"x_min":-22,"x_max":1034,"o":"m -22 -2 l 37 593 q 380 949 68 934 l 1034 949 l 1011 717 l 432 717 q 326 648 358 720 l 321 598 l 1001 599 l 978 370 l 302 371 l 264 -2 l -22 -2 z "},"G":{"ha":991,"x_min":-37,"x_max":1017,"o":"m 922 0 l 252 0 q 8 475 -37 17 q 364 949 53 934 l 1017 949 l 993 718 l 417 718 q 323 672 353 717 q 268 319 254 496 q 336 248 275 263 l 696 247 l 725 524 l 974 524 l 922 0 z "},"H":{"ha":968,"x_min":-26,"x_max":991,"o":"m 69 951 l 353 951 l 317 600 l 670 601 l 707 953 l 991 951 l 896 -3 l 609 -1 l 647 366 l 294 366 l 258 0 l -26 0 l 69 951 z "},"I":{"ha":338,"x_min":-22,"x_max":356,"o":"m 79 948 l 356 948 l 262 -1 l -22 -1 l 79 948 z "},"J":{"ha":613,"x_min":-24,"x_max":636,"o":"m 636 954 l 578 358 q 234 2 547 18 l -24 2 l 0 234 l 182 235 q 288 323 261 237 l 351 954 l 636 954 z "},"K":{"ha":1012,"x_min":-31,"x_max":1062,"o":"m 64 954 l 375 954 l 330 497 q 405 643 342 585 l 688 954 l 1062 954 l 707 524 q 701 420 664 473 l 971 3 l 593 3 l 370 328 q 328 476 319 394 l 280 3 l -31 3 l 64 954 z "},"L":{"ha":996,"x_min":-35,"x_max":958,"o":"m 351 950 l 291 359 q 378 264 290 273 l 958 263 l 932 -5 l 276 -5 q 3 353 -35 11 l 63 950 l 351 950 z "},"M":{"ha":1190,"x_min":-22,"x_max":1206,"o":"m -22 -4 l 73 950 l 924 948 q 1191 647 1206 956 l 1126 -3 l 885 -3 l 942 572 q 880 677 962 680 l 753 676 l 684 -3 l 444 -3 l 512 678 l 307 679 l 239 -4 l -22 -4 z "},"N":{"ha":986,"x_min":-18,"x_max":1002,"o":"m -18 -4 l 77 950 l 722 950 q 986 647 1002 956 l 921 -3 l 668 -3 l 732 593 q 663 679 749 685 l 312 679 l 244 -4 l -18 -4 z "},"O":{"ha":1032,"x_min":-42,"x_max":1076,"o":"m 709 -14 l 258 -14 q 8 470 -42 -15 q 374 963 55 960 l 743 962 q 1023 489 1076 968 q 709 -14 1001 -7 m 268 316 q 351 239 288 251 l 617 239 q 712 301 685 247 q 758 487 745 339 q 738 675 771 634 q 639 724 706 718 l 434 724 q 308 637 345 717 q 269 472 283 601 q 268 316 255 342 z "},"P":{"ha":1008,"x_min":-27,"x_max":1038,"o":"m 68 949 l 726 949 q 1005 624 1038 934 q 678 296 973 314 l 287 296 l 257 1 l -27 0 l 68 949 m 316 547 l 668 549 q 758 624 746 548 q 684 712 770 699 l 332 712 l 316 547 z "},"Q":{"ha":1015,"x_min":-41,"x_max":1061,"o":"m 846 39 l 895 -50 l 580 -51 l 556 -7 l 255 -7 q 8 470 -41 -8 q 369 956 54 954 l 733 956 q 1009 489 1061 962 q 846 39 985 125 m 264 318 q 347 242 284 254 l 609 243 q 703 303 675 250 q 748 487 735 341 q 728 672 760 632 q 630 720 696 714 l 428 720 q 304 635 340 713 q 266 472 279 599 q 264 318 252 345 z "},"R":{"ha":1021,"x_min":-28,"x_max":1023,"o":"m 67 949 l 725 949 q 1008 627 1023 900 q 850 310 1004 427 l 983 -3 l 666 -3 l 537 296 l 286 296 l 256 1 l -28 0 l 67 949 m 315 547 l 665 547 q 756 624 745 548 q 684 712 768 699 l 332 712 l 315 547 z "},"S":{"ha":912,"x_min":-26,"x_max":942,"o":"m 918 701 l 392 701 q 310 696 338 701 q 259 654 281 691 q 296 603 266 608 q 388 597 326 597 l 645 597 q 861 507 800 588 q 909 282 923 427 q 807 69 886 138 q 547 -3 728 0 l -26 -3 l -2 241 l 543 241 q 651 246 614 241 q 701 300 688 251 q 664 348 696 340 q 553 355 631 355 l 305 355 q 73 435 141 355 q 19 657 5 515 q 126 873 45 806 q 382 948 207 940 l 942 948 l 918 701 z "},"T":{"ha":1050,"x_min":24,"x_max":1020,"o":"m 901 950 l 875 682 l 389 682 l 355 361 q 443 267 355 275 l 1020 266 l 995 -1 l 341 -1 q 68 355 31 14 l 102 684 l 24 683 l 52 950 l 901 950 z "},"U":{"ha":975,"x_min":-15,"x_max":1002,"o":"m 1002 949 l 906 -2 l 264 -2 q 1 300 -15 -7 l 66 948 l 317 948 l 254 355 q 322 269 237 262 l 672 269 l 740 948 l 1002 949 z "},"V":{"ha":1152,"x_min":3,"x_max":1188,"o":"m 349 81 l 3 948 l 334 948 l 554 391 l 871 948 l 1188 948 l 688 81 q 509 -14 630 -14 q 349 81 389 -14 z "},"W":{"ha":1206,"x_min":-10,"x_max":1221,"o":"m 1221 947 l 1126 -9 l 273 -7 q 5 295 -10 -16 l 71 946 l 312 947 l 254 369 q 317 264 234 262 l 444 265 l 513 946 l 753 946 l 686 263 l 892 263 l 960 947 l 1221 947 z "},"X":{"ha":1055,"x_min":-57,"x_max":1109,"o":"m 401 471 l 51 945 l 415 945 l 565 735 l 761 945 l 1109 945 l 685 485 l 1042 -3 l 682 -3 l 519 210 l 311 -3 l -57 -3 l 401 471 z "},"Y":{"ha":975,"x_min":-26,"x_max":994,"o":"m 994 948 l 918 181 q 707 -13 902 13 l -26 -14 l -4 240 l 568 239 q 661 322 653 239 l 661 328 l 287 328 q 23 631 8 321 l 56 947 l 308 948 l 285 688 q 346 599 275 606 l 694 599 l 732 948 l 994 948 z "},"Z":{"ha":1038,"x_min":-28,"x_max":1078,"o":"m 949 616 l 501 268 l 994 268 l 967 -3 l 142 -3 q -21 132 -4 11 q 81 334 -28 254 l 542 681 l 54 681 l 81 948 l 903 948 q 1055 787 1078 940 q 949 616 1041 678 z "},"":{"ha":1035,"x_min":-28,"x_max":1079,"o":"m 949 616 l 502 268 l 995 268 l 968 -3 l 143 -3 q -20 132 -3 11 q 82 334 -28 254 l 543 681 l 55 681 l 81 948 l 505 948 l 559 1027 q 765 1119 623 1126 q 872 1032 906 1112 l 817 948 l 903 948 q 1055 787 1079 940 q 949 616 1042 678 z "},"¯":{"ha":1038,"x_min":-26,"x_max":1080,"o":"m 951 616 l 503 268 l 996 268 l 969 -3 l 144 -3 q -19 132 -2 11 q 83 334 -26 254 l 544 681 l 56 681 l 83 948 l 905 948 q 1057 787 1080 940 q 951 616 1043 678 m 462 1075 q 581 1208 467 1198 q 709 1085 703 1203 q 578 964 705 968 q 462 1075 475 977 z "},"¥":{"ha":970,"x_min":-26,"x_max":991,"o":"m -26 3 l 39 649 q 391 954 83 941 l 712 953 q 975 651 991 934 l 909 1 l 657 1 l 686 290 l 267 290 l 236 3 l -26 3 m 300 629 l 290 528 l 711 528 l 720 607 q 656 730 740 717 l 401 729 q 300 629 299 726 m 637 -147 q 753 -258 650 -245 q 884 -137 880 -254 q 755 -14 878 -19 q 637 -147 642 -24 z "},"Ê":{"ha":992,"x_min":-33,"x_max":1018,"o":"m 924 0 l 255 0 q 12 474 -33 17 q 368 947 56 932 l 1018 947 l 995 717 l 418 716 q 331 680 345 719 l 308 598 l 984 597 l 960 370 l 289 372 l 290 319 q 338 245 292 251 l 948 246 l 924 0 m 665 -142 q 781 -253 677 -241 q 912 -132 907 -250 q 783 -9 905 -14 q 665 -142 669 -20 z "},"Æ":{"ha":991,"x_min":-35,"x_max":1017,"o":"m 923 0 l 254 0 q 9 475 -35 17 q 366 949 54 934 l 1017 949 l 994 718 l 418 718 q 324 672 354 717 q 269 319 255 496 q 337 248 277 263 l 947 246 l 923 0 m 488 1076 q 606 1209 492 1199 q 735 1086 728 1204 q 604 966 730 969 q 488 1076 500 978 z "},"£":{"ha":1000,"x_min":-13,"x_max":979,"o":"m 372 950 l 339 623 l 469 635 l 443 368 l 313 359 q 400 264 311 273 l 979 263 l 954 -5 l 298 -5 q 24 353 -13 11 l 85 950 l 372 950 z "},"Ñ":{"ha":985,"x_min":-23,"x_max":997,"o":"m -23 -4 l 73 950 l 718 950 q 981 647 997 956 l 916 -3 l 663 -3 l 727 593 q 659 679 744 685 l 307 679 l 239 -4 l -23 -4 m 419 1087 q 538 1220 424 1210 q 667 1097 660 1215 q 536 977 662 980 q 419 1087 432 989 z "},"Ó":{"ha":1040,"x_min":-35,"x_max":1083,"o":"m 715 -14 l 265 -14 q 15 470 -35 -15 q 380 963 62 960 l 750 962 q 1030 489 1083 968 q 715 -14 1008 -7 m 275 316 q 358 239 295 251 l 624 239 q 719 301 692 247 q 765 487 752 339 q 745 675 778 634 q 646 724 713 718 l 441 724 q 315 637 352 717 q 276 472 290 601 q 275 316 262 342 m 471 1093 q 590 1226 476 1216 q 719 1103 712 1221 q 588 983 714 986 q 471 1093 484 995 z "},"Œ":{"ha":919,"x_min":-23,"x_max":945,"o":"m 921 701 l 395 701 q 313 696 342 701 q 262 654 284 691 q 299 603 269 608 q 391 597 329 597 l 648 597 q 865 507 803 588 q 912 282 926 427 q 810 69 889 138 q 551 -3 732 0 l -23 -3 l 1 241 l 547 241 q 654 246 617 241 q 705 300 691 251 q 667 348 700 340 q 557 355 634 355 l 309 355 q 76 435 144 355 q 22 657 8 515 q 130 873 49 806 q 385 948 210 940 l 945 948 l 921 701 m 402 1083 q 521 1216 407 1206 q 650 1093 643 1211 q 519 972 645 976 q 402 1083 415 985 z "},"[":{"ha":191,"x_min":0,"x_max":0,"o":""},"\\":{"ha":216,"x_min":0,"x_max":0,"o":""},"]":{"ha":212,"x_min":0,"x_max":0,"o":""},"^":{"ha":224,"x_min":0,"x_max":0,"o":""},"_":{"ha":332,"x_min":0,"x_max":0,"o":""},"`":{"ha":242,"x_min":0,"x_max":0,"o":""},"a":{"ha":968,"x_min":-34,"x_max":983,"o":"m -34 3 l 31 649 q 382 954 75 941 l 704 953 q 966 651 983 934 l 901 1 l 649 1 l 678 290 l 256 292 l 228 3 l -34 3 m 292 629 l 281 528 l 703 528 l 711 607 q 648 730 732 717 l 393 729 q 292 629 291 726 z "},"b":{"ha":992,"x_min":-33,"x_max":1013,"o":"m 60 948 l 717 948 q 994 702 990 926 q 906 487 989 562 q 988 248 1013 423 q 614 1 949 -3 l -33 0 l 60 948 m 279 229 l 606 229 q 694 287 684 231 q 615 351 704 342 l 291 354 l 279 229 m 311 585 l 639 584 q 727 642 717 587 q 652 709 736 696 l 323 709 l 311 585 z "},"c":{"ha":993,"x_min":-35,"x_max":1017,"o":"m 923 0 l 254 0 q 9 475 -35 17 q 366 949 54 934 l 1017 949 l 994 718 l 418 718 q 324 672 354 717 q 269 319 255 496 q 337 248 277 263 l 947 246 l 923 0 z "},"d":{"ha":990,"x_min":-28,"x_max":1022,"o":"m 67 945 l 713 945 q 976 471 1022 927 q 638 -2 929 16 l -28 -1 l 67 945 m 241 240 l 612 239 q 696 304 671 248 q 742 471 730 357 q 724 663 755 585 q 637 713 702 711 l 288 713 l 241 240 z "},"e":{"ha":994,"x_min":-33,"x_max":1018,"o":"m 924 0 l 255 0 q 12 474 -33 17 q 368 947 56 932 l 1018 947 l 995 717 l 418 716 q 331 680 345 719 l 308 598 l 984 597 l 960 370 l 289 372 l 290 319 q 338 245 292 251 l 948 246 l 924 0 z "},"f":{"ha":998,"x_min":-28,"x_max":1027,"o":"m -28 -2 l 30 593 q 374 949 61 934 l 1027 949 l 1004 717 l 425 717 q 319 648 351 720 l 314 598 l 994 599 l 971 370 l 295 371 l 257 -2 l -28 -2 z "},"g":{"ha":991,"x_min":-35,"x_max":1019,"o":"m 923 0 l 254 0 q 9 475 -35 17 q 366 949 54 934 l 1019 949 l 994 718 l 418 718 q 324 672 354 717 q 269 319 255 496 q 337 248 277 263 l 698 247 l 726 524 l 975 524 l 923 0 z "},"h":{"ha":966,"x_min":-25,"x_max":991,"o":"m 70 951 l 353 951 l 318 600 l 671 601 l 708 953 l 991 951 l 897 -3 l 610 -1 l 648 366 l 294 366 l 258 0 l -25 0 l 70 951 z "},"i":{"ha":326,"x_min":-31,"x_max":347,"o":"m 70 948 l 347 948 l 253 -1 l -31 -1 l 70 948 z "},"j":{"ha":613,"x_min":-24,"x_max":636,"o":"m 636 954 l 578 358 q 234 2 547 18 l -24 2 l 0 234 l 182 235 q 288 323 261 237 l 351 954 l 636 954 z "},"k":{"ha":1034,"x_min":-24,"x_max":1069,"o":"m 71 954 l 382 954 l 336 497 q 412 643 349 585 l 694 954 l 1069 954 l 713 524 q 707 420 671 473 l 978 3 l 600 3 l 376 328 q 334 476 326 394 l 287 3 l -24 3 l 71 954 z "},"l":{"ha":984,"x_min":-26,"x_max":963,"o":"m 358 950 l 298 361 q 386 267 298 275 l 963 266 l 938 -1 l 284 -1 q 12 355 -26 14 l 72 950 l 358 950 z "},"m":{"ha":1198,"x_min":-25,"x_max":1204,"o":"m -25 -4 l 71 950 l 922 948 q 1188 647 1204 956 l 1123 -3 l 882 -3 l 939 572 q 878 677 960 680 l 750 676 l 682 -3 l 441 -3 l 509 678 l 304 679 l 236 -4 l -25 -4 z "},"n":{"ha":975,"x_min":-30,"x_max":990,"o":"m -30 -4 l 66 950 l 711 950 q 975 647 990 956 l 909 -3 l 656 -3 l 720 593 q 652 679 737 685 l 300 679 l 233 -4 l -30 -4 z "},"o":{"ha":1021,"x_min":-44,"x_max":1071,"o":"m 705 -12 l 256 -12 q 6 470 -44 -14 q 371 962 53 959 l 739 961 q 1018 489 1071 967 q 705 -12 996 -6 m 268 318 q 350 242 288 254 l 612 243 q 706 303 679 250 q 751 487 739 341 q 731 672 764 632 q 633 720 700 714 l 431 720 q 307 635 344 713 q 269 472 283 599 q 268 318 255 345 z "},"p":{"ha":1010,"x_min":-24,"x_max":1040,"o":"m 71 949 l 729 949 q 1008 624 1040 934 q 681 296 976 314 l 290 296 l 260 1 l -24 0 l 71 949 m 319 547 l 671 549 q 761 624 749 548 q 687 712 772 699 l 335 712 l 319 547 z "},"q":{"ha":1027,"x_min":-35,"x_max":1067,"o":"m 852 39 l 901 -50 l 586 -51 l 562 -7 l 261 -7 q 14 470 -35 -8 q 375 956 60 954 l 739 956 q 1015 489 1067 962 q 852 39 991 125 m 271 318 q 353 242 290 254 l 615 243 q 709 303 682 250 q 754 487 741 341 q 734 672 766 632 q 636 720 703 714 l 434 720 q 310 635 347 713 q 272 472 286 599 q 271 318 258 345 z "},"r":{"ha":1017,"x_min":-27,"x_max":1025,"o":"m 68 949 l 726 949 q 1010 627 1025 900 q 851 310 1006 427 l 984 -3 l 667 -3 l 538 296 l 287 296 l 258 1 l -27 0 l 68 949 m 317 547 l 666 547 q 758 624 746 548 q 685 712 770 699 l 333 712 l 317 547 z "},"s":{"ha":916,"x_min":-26,"x_max":942,"o":"m 918 701 l 392 701 q 310 696 338 701 q 259 654 281 691 q 296 603 266 608 q 388 597 326 597 l 645 597 q 861 507 800 588 q 909 282 923 427 q 807 69 886 138 q 547 -3 728 0 l -26 -3 l -2 241 l 543 241 q 651 246 614 241 q 701 300 688 251 q 664 348 696 340 q 553 355 631 355 l 305 355 q 73 435 141 355 q 19 657 5 515 q 126 873 45 806 q 382 948 207 940 l 942 948 l 918 701 z "},"t":{"ha":1037,"x_min":18,"x_max":1013,"o":"m 895 950 l 868 682 l 382 682 l 349 361 q 436 267 348 275 l 1013 266 l 988 -1 l 334 -1 q 62 355 24 14 l 96 684 l 18 683 l 45 950 l 895 950 z "},"u":{"ha":980,"x_min":-10,"x_max":1003,"o":"m 1003 949 l 908 1 l 267 1 q 5 302 -10 -5 l 70 949 l 321 949 l 258 357 q 326 271 241 265 l 675 271 l 743 949 l 1003 949 z "},"v":{"ha":1127,"x_min":-10,"x_max":1175,"o":"m 336 81 l -10 948 l 321 948 l 541 391 l 857 948 l 1175 948 l 674 81 q 496 -14 616 -14 q 336 81 376 -14 z "},"w":{"ha":1208,"x_min":-8,"x_max":1223,"o":"m 1223 947 l 1128 -9 l 275 -7 q 7 295 -8 -16 l 73 946 l 314 947 l 256 369 q 319 264 236 262 l 446 265 l 515 946 l 755 946 l 688 263 l 894 263 l 962 947 l 1223 947 z "},"x":{"ha":1063,"x_min":-43,"x_max":1122,"o":"m 415 471 l 64 945 l 429 945 l 578 735 l 774 945 l 1122 945 l 699 485 l 1055 -3 l 696 -3 l 533 210 l 324 -3 l -43 -3 l 415 471 z "},"y":{"ha":984,"x_min":-15,"x_max":1006,"o":"m 1006 948 l 929 181 q 718 -13 913 13 l -15 -14 l 7 240 l 579 239 q 673 322 665 239 l 672 328 l 298 328 q 35 631 20 321 l 67 947 l 319 948 l 296 688 q 357 599 287 606 l 706 599 l 743 948 l 1006 948 z "},"z":{"ha":1046,"x_min":-26,"x_max":1080,"o":"m 951 616 l 503 268 l 996 268 l 969 -3 l 144 -3 q -19 132 -2 11 q 83 334 -26 254 l 544 681 l 56 681 l 83 948 l 905 948 q 1057 787 1080 940 q 951 616 1043 678 z "},"Ÿ":{"ha":1033,"x_min":-28,"x_max":1079,"o":"m 949 616 l 502 268 l 995 268 l 968 -3 l 143 -3 q -20 132 -3 11 q 82 334 -28 254 l 543 681 l 55 681 l 81 948 l 505 948 l 559 1027 q 765 1119 623 1126 q 872 1032 906 1112 l 817 948 l 903 948 q 1055 787 1079 940 q 949 616 1042 678 z "},"¿":{"ha":1031,"x_min":-33,"x_max":1074,"o":"m 944 616 l 496 268 l 989 268 l 962 -3 l 138 -3 q -26 132 -9 11 q 77 334 -33 254 l 537 681 l 50 681 l 76 948 l 898 948 q 1050 787 1074 940 q 944 616 1036 678 m 455 1075 q 574 1208 460 1198 q 703 1085 696 1203 q 572 964 698 968 q 455 1075 468 977 z "},"¹":{"ha":975,"x_min":-22,"x_max":995,"o":"m -22 3 l 42 649 q 394 954 87 941 l 715 953 q 978 651 995 934 l 913 1 l 661 1 l 690 290 l 270 290 l 239 3 l -22 3 m 304 629 l 293 528 l 714 528 l 723 607 q 659 730 743 717 l 404 729 q 304 629 302 726 m 640 -147 q 757 -258 653 -245 q 888 -137 883 -254 q 759 -14 881 -19 q 640 -147 645 -24 z "},"ê":{"ha":998,"x_min":-27,"x_max":1023,"o":"m 929 0 l 260 0 q 17 474 -27 17 q 373 947 62 932 l 1023 947 l 998 715 l 424 716 q 336 680 351 719 l 313 598 l 987 600 l 963 372 l 294 372 l 295 319 q 344 245 298 251 l 954 246 l 929 0 m 670 -142 q 787 -253 683 -241 q 918 -132 913 -250 q 789 -9 911 -14 q 670 -142 675 -20 z "},"æ":{"ha":991,"x_min":-37,"x_max":1015,"o":"m 921 0 l 252 0 q 7 475 -37 17 q 363 949 52 934 l 1015 949 l 992 718 l 416 718 q 322 672 352 717 q 267 319 253 496 q 335 248 275 263 l 945 246 l 921 0 m 486 1076 q 604 1209 490 1199 q 733 1086 726 1204 q 602 966 728 969 q 486 1076 498 978 z "},"³":{"ha":988,"x_min":-23,"x_max":969,"o":"m 362 950 l 329 623 l 458 635 l 433 368 l 302 359 q 390 264 301 273 l 969 263 l 944 -5 l 288 -5 q 14 353 -23 11 l 75 950 l 362 950 z "},"ñ":{"ha":986,"x_min":-23,"x_max":997,"o":"m -23 -4 l 73 950 l 718 950 q 981 647 997 956 l 916 -3 l 663 -3 l 727 593 q 659 679 744 685 l 307 679 l 239 -4 l -23 -4 m 419 1087 q 538 1220 424 1210 q 667 1097 660 1215 q 536 977 662 980 q 419 1087 432 989 z "},"ó":{"ha":1037,"x_min":-37,"x_max":1081,"o":"m 713 -14 l 263 -14 q 13 470 -37 -15 q 378 963 60 960 l 748 962 q 1028 489 1081 968 q 713 -14 1006 -7 m 273 316 q 356 239 293 251 l 622 239 q 717 301 690 247 q 763 487 750 339 q 743 675 776 634 q 644 724 711 718 l 439 724 q 313 637 350 717 q 274 472 288 601 q 273 316 260 342 m 469 1093 q 588 1226 474 1216 q 717 1103 710 1221 q 586 983 712 986 q 469 1093 482 995 z "},"œ":{"ha":917,"x_min":-27,"x_max":941,"o":"m 917 701 l 391 701 q 309 696 338 701 q 258 654 280 691 q 295 603 265 608 q 387 597 325 597 l 644 597 q 861 507 799 588 q 908 282 922 427 q 806 69 885 138 q 547 -3 728 0 l -27 -3 l -3 241 l 543 241 q 650 246 613 241 q 701 300 687 251 q 663 348 696 340 q 553 355 630 355 l 304 355 q 72 435 140 355 q 18 657 4 515 q 125 873 45 806 q 381 948 206 940 l 941 948 l 917 701 m 398 1083 q 517 1216 403 1206 q 646 1093 639 1211 q 515 972 641 976 q 398 1083 411 985 z "},"{":{"ha":285,"x_min":0,"x_max":0,"o":""},"|":{"ha":136,"x_min":0,"x_max":0,"o":""},"}":{"ha":244,"x_min":0,"x_max":0,"o":""},"~":{"ha":431,"x_min":0,"x_max":0,"o":""},"Ä":{"ha":413,"x_min":0,"x_max":0,"o":""},"Å":{"ha":413,"x_min":0,"x_max":0,"o":""},"Ç":{"ha":494,"x_min":0,"x_max":0,"o":""},"É":{"ha":439,"x_min":0,"x_max":0,"o":""},"Ö":{"ha":472,"x_min":0,"x_max":0,"o":""},"Ü":{"ha":448,"x_min":0,"x_max":0,"o":""},"á":{"ha":250,"x_min":0,"x_max":0,"o":""},"à":{"ha":250,"x_min":0,"x_max":0,"o":""},"â":{"ha":250,"x_min":0,"x_max":0,"o":""},"ä":{"ha":250,"x_min":0,"x_max":0,"o":""},"ã":{"ha":250,"x_min":0,"x_max":0,"o":""},"å":{"ha":250,"x_min":0,"x_max":0,"o":""},"ç":{"ha":346,"x_min":0,"x_max":0,"o":""},"é":{"ha":330,"x_min":0,"x_max":0,"o":""},"è":{"ha":330,"x_min":0,"x_max":0,"o":""},"ë":{"ha":330,"x_min":0,"x_max":0,"o":""},"í":{"ha":159,"x_min":0,"x_max":0,"o":""},"ì":{"ha":159,"x_min":0,"x_max":0,"o":""},"î":{"ha":159,"x_min":0,"x_max":0,"o":""},"ï":{"ha":159,"x_min":0,"x_max":0,"o":""},"ò":{"ha":248,"x_min":0,"x_max":0,"o":""},"ô":{"ha":248,"x_min":0,"x_max":0,"o":""},"ö":{"ha":248,"x_min":0,"x_max":0,"o":""},"õ":{"ha":248,"x_min":0,"x_max":0,"o":""},"ú":{"ha":232,"x_min":0,"x_max":0,"o":""},"ù":{"ha":232,"x_min":0,"x_max":0,"o":""},"û":{"ha":232,"x_min":0,"x_max":0,"o":""},"ü":{"ha":232,"x_min":0,"x_max":0,"o":""},"†":{"ha":306,"x_min":0,"x_max":0,"o":""},"°":{"ha":193,"x_min":0,"x_max":0,"o":""},"¢":{"ha":431,"x_min":0,"x_max":0,"o":""},"§":{"ha":285,"x_min":0,"x_max":0,"o":""},"•":{"ha":262,"x_min":0,"x_max":0,"o":""},"¶":{"ha":305,"x_min":0,"x_max":0,"o":""},"ß":{"ha":338,"x_min":0,"x_max":0,"o":""},"®":{"ha":507,"x_min":0,"x_max":0,"o":""},"©":{"ha":484,"x_min":0,"x_max":0,"o":""},"™":{"ha":462,"x_min":0,"x_max":0,"o":""},"´":{"ha":313,"x_min":0,"x_max":0,"o":""},"¨":{"ha":252,"x_min":0,"x_max":0,"o":""},"Ø":{"ha":472,"x_min":0,"x_max":0,"o":""},"±":{"ha":431,"x_min":0,"x_max":0,"o":""},"µ":{"ha":285,"x_min":0,"x_max":0,"o":""},"ª":{"ha":273,"x_min":0,"x_max":0,"o":""},"º":{"ha":273,"x_min":0,"x_max":0,"o":""},"ø":{"ha":248,"x_min":0,"x_max":0,"o":""},"¡":{"ha":210,"x_min":0,"x_max":0,"o":""},"¬":{"ha":946,"x_min":0,"x_max":0,"o":""},"ƒ":{"ha":391,"x_min":0,"x_max":0,"o":""},"«":{"ha":366,"x_min":0,"x_max":0,"o":""},"»":{"ha":366,"x_min":0,"x_max":0,"o":""},"…":{"ha":537,"x_min":0,"x_max":0,"o":""}," ":{"ha":338,"x_min":0,"x_max":0,"o":""},"À":{"ha":413,"x_min":0,"x_max":0,"o":""},"Ã":{"ha":413,"x_min":0,"x_max":0,"o":""},"Õ":{"ha":472,"x_min":0,"x_max":0,"o":""},"–":{"ha":464,"x_min":0,"x_max":0,"o":""},"—":{"ha":606,"x_min":0,"x_max":0,"o":""},"“":{"ha":232,"x_min":0,"x_max":0,"o":""},"”":{"ha":203,"x_min":0,"x_max":0,"o":""},"‘":{"ha":161,"x_min":0,"x_max":0,"o":""},"’":{"ha":163,"x_min":0,"x_max":0,"o":""},"÷":{"ha":431,"x_min":0,"x_max":0,"o":""},"ÿ":{"ha":267,"x_min":0,"x_max":0,"o":""},"¤":{"ha":285,"x_min":0,"x_max":0,"o":""},"‹":{"ha":218,"x_min":0,"x_max":0,"o":""},"›":{"ha":218,"x_min":0,"x_max":0,"o":""},"‡":{"ha":228,"x_min":0,"x_max":0,"o":""},"·":{"ha":140,"x_min":0,"x_max":0,"o":""},"‚":{"ha":159,"x_min":0,"x_max":0,"o":""},"„":{"ha":273,"x_min":0,"x_max":0,"o":""},"‰":{"ha":494,"x_min":0,"x_max":0,"o":""},"Â":{"ha":413,"x_min":0,"x_max":0,"o":""},"Á":{"ha":413,"x_min":0,"x_max":0,"o":""},"Ë":{"ha":439,"x_min":0,"x_max":0,"o":""},"È":{"ha":439,"x_min":0,"x_max":0,"o":""},"Í":{"ha":159,"x_min":0,"x_max":0,"o":""},"Î":{"ha":159,"x_min":0,"x_max":0,"o":""},"Ï":{"ha":159,"x_min":0,"x_max":0,"o":""},"Ì":{"ha":159,"x_min":0,"x_max":0,"o":""},"Ô":{"ha":472,"x_min":0,"x_max":0,"o":""},"Ò":{"ha":472,"x_min":0,"x_max":0,"o":""},"Ú":{"ha":448,"x_min":0,"x_max":0,"o":""},"Û":{"ha":448,"x_min":0,"x_max":0,"o":""},"Ù":{"ha":448,"x_min":0,"x_max":0,"o":""},"ˆ":{"ha":244,"x_min":0,"x_max":0,"o":""},"˜":{"ha":328,"x_min":0,"x_max":0,"o":""},"ˉ":{"ha":244,"x_min":0,"x_max":0,"o":""},"¸":{"ha":218,"x_min":0,"x_max":0,"o":""},"Š":{"ha":421,"x_min":0,"x_max":0,"o":""},"š":{"ha":232,"x_min":0,"x_max":0,"o":""},"¦":{"ha":136,"x_min":0,"x_max":0,"o":""},"Ð":{"ha":450,"x_min":0,"x_max":0,"o":""},"ð":{"ha":328,"x_min":0,"x_max":0,"o":""},"Ý":{"ha":357,"x_min":0,"x_max":0,"o":""},"ý":{"ha":267,"x_min":0,"x_max":0,"o":""},"Þ":{"ha":391,"x_min":0,"x_max":0,"o":""},"þ":{"ha":236,"x_min":0,"x_max":0,"o":""},"­":{"ha":431,"x_min":0,"x_max":0,"o":""},"×":{"ha":431,"x_min":0,"x_max":0,"o":""},"²":{"ha":203,"x_min":0,"x_max":0,"o":""},"½":{"ha":533,"x_min":0,"x_max":0,"o":""},"¼":{"ha":533,"x_min":0,"x_max":0,"o":""},"¾":{"ha":533,"x_min":0,"x_max":0,"o":""},"Ž":{"ha":468,"x_min":0,"x_max":0,"o":""},"ž":{"ha":313,"x_min":0,"x_max":0,"o":""},"≠":{"ha":431,"x_min":0,"x_max":0,"o":""},"∞":{"ha":454,"x_min":0,"x_max":0,"o":""},"≤":{"ha":232,"x_min":0,"x_max":0,"o":""},"≥":{"ha":232,"x_min":0,"x_max":0,"o":""},"∂":{"ha":328,"x_min":0,"x_max":0,"o":""},"∑":{"ha":948,"x_min":0,"x_max":0,"o":""},"∏":{"ha":541,"x_min":0,"x_max":0,"o":""},"π":{"ha":541,"x_min":0,"x_max":0,"o":""},"∫":{"ha":948,"x_min":0,"x_max":0,"o":""},"Ω":{"ha":979,"x_min":0,"x_max":0,"o":""},"√":{"ha":555,"x_min":0,"x_max":0,"o":""},"≈":{"ha":431,"x_min":0,"x_max":0,"o":""},"Δ":{"ha":248,"x_min":0,"x_max":0,"o":""},"◊":{"ha":165,"x_min":0,"x_max":0,"o":""},"⁄":{"ha":159,"x_min":0,"x_max":0,"o":""},"":{"ha":356,"x_min":0,"x_max":0,"o":""},"":{"ha":326,"x_min":0,"x_max":0,"o":""},"":{"ha":399,"x_min":0,"x_max":0,"o":""},"ı":{"ha":159,"x_min":0,"x_max":0,"o":""},"˘":{"ha":244,"x_min":0,"x_max":0,"o":""},"˙":{"ha":124,"x_min":0,"x_max":0,"o":""},"˚":{"ha":244,"x_min":0,"x_max":0,"o":""},"˝":{"ha":317,"x_min":0,"x_max":0,"o":""},"˛":{"ha":183,"x_min":0,"x_max":0,"o":""},"ˇ":{"ha":244,"x_min":0,"x_max":0,"o":""}}}
